<?xml version="1.0" encoding="UTF-8" standalone="no"?>
<svg width="449px" height="341px" viewBox="0 0 449 341" version="1.1" xmlns="http://www.w3.org/2000/svg" xmlns:xlink="http://www.w3.org/1999/xlink" xmlns:sketch="http://www.bohemiancoding.com/sketch/ns">
    <!-- Generator: Sketch 3.3 (11970) - http://www.bohemiancoding.com/sketch -->
    <title>Group</title>
    <desc>Created with Sketch.</desc>
    <defs></defs>
    <g id="Page-1" stroke="none" stroke-width="1" fill="none" fill-rule="evenodd" sketch:type="MSPage">
        <g id="www.pinterest.com" sketch:type="MSLayerGroup" fill="#FFFFFF">
            <g id="Group" sketch:type="MSShapeGroup">
                <path d="M236.5,158.15 C236.5,169.4 236.55,180.65 236.5,191.9 C236.45,197.85 232.2,202.75 226.55,203.6 C220.6,204.5 215.1,201.05 213.35,195.4 C212.8,193.7 212.75,191.95 212.75,190.2 L212.75,124.7 C212.75,121.25 212.75,121.3 209.35,121.4 C189.85,122 170.55,124.45 151.5,128.65 C122.85,135 95.5,144.9 69.85,159.25 C68.2,160.15 67.7,160.9 68.4,162.9 C75,182 78.55,201.65 79.1,221.85 C79.15,224.6 79.35,227.35 79.25,230.1 C79.1,235.05 76.75,238.7 72.25,240.7 C67.75,242.65 63.55,241.9 59.65,238.8 C56.8,236.55 55.55,233.65 55.6,230.1 C55.7,223.4 55.25,216.75 54.5,210.1 C53.05,196.45 50.3,183.05 45.65,170.1 C41.45,158.5 36.25,147.5 29.3,137.3 C28.1,135.55 26.9,135 24.9,135.1 C14.35,135.65 6.6,130.95 2.35,121.55 C-1.3,113.5 -0.25,103.1 6.85,95.4 C13.8,87.9 28.1,86.4 36.85,92.6 C44.75,98.15 48.6,107.85 46.15,117.4 C45.8,118.8 46,119.8 46.9,121 C50.35,125.7 53.7,130.55 56.25,135.85 C57.4,138.25 58.55,138.35 60.65,137.2 C75.5,128.9 91.1,122.4 107.15,116.9 C124.85,110.8 143,106.1 161.5,103.1 C170.3,101.65 179.1,100.45 187.95,99.6 C195.65,98.9 203.3,98.35 211,98.2 C212.6,98.15 212.7,97.5 212.7,96.25 C212.65,91.5 212.7,86.75 212.7,82 L212.7,45.75 C212.7,44.45 212.55,43.5 211.3,42.6 C200.75,35.35 198.6,23.7 203.35,13.25 C206.55,6.2 212.5,1.85 220.65,0.5 C230.2,-1.05 240.6,4.2 244.85,12.3 C250,22 247.95,34.85 238.8,41.55 C237,42.85 236.35,44.2 236.35,46.4 C236.45,63.05 236.45,79.75 236.35,96.4 C236.35,98.3 236.9,98.6 238.7,98.7 C245.8,99.05 252.85,99.8 259.9,100.55 C276.95,102.4 293.65,105.75 310.2,110.15 C326.15,114.4 341.75,119.8 356.95,126.15 C367.7,130.65 378.2,135.6 388.5,141 C390.15,141.85 390.8,141.35 391.5,139.95 C394.6,133.65 398,127.6 402.3,122.05 C403.05,121.1 403.1,120 402.7,118.55 C400.55,109.95 402.15,102.35 408.35,95.45 C415.6,87.3 431.65,85.55 441.4,95.15 C450.35,103.9 450.9,117.9 442.6,127.2 C437.6,132.8 431.4,135.7 423.75,135.15 C422.6,135.05 421.9,135.45 421.15,136.5 C410.55,151.9 403.7,168.95 399.4,187.05 C397.4,195.45 396,203.95 395.3,212.55 C394.8,218.45 394.7,224.35 394.5,230.2 C394.3,236.65 389.3,241.65 382.8,241.7 C376.2,241.75 370.95,236.7 370.9,230.15 C370.8,208.35 373.85,187.05 380.7,166.3 C381.3,164.4 381,163.65 379.25,162.75 C348.35,146.6 316.05,134.45 281.8,127.55 C267.4,124.65 252.9,122.9 238.3,121.8 C236.3,121.65 236.4,122.6 236.4,123.95 C236.5,135.3 236.5,146.75 236.5,158.15 L236.5,158.15 Z" id="Shape"></path>
                <path d="M53,286 C53.1,277.1 55.55,271.35 60.1,266.3 C70.2,255.15 83.45,249.45 97.25,244.65 C115.45,238.35 134.25,234.9 153.25,232.3 C162.3,231.05 171.4,230.2 180.55,229.55 C191.3,228.8 202.05,228.3 212.8,228 C218.95,227.85 225.1,227.7 231.2,227.75 C240.15,227.85 249.1,228.15 258.05,228.7 C270.15,229.45 282.3,230.4 294.3,232.05 C310.15,234.25 325.85,237.1 341.25,241.4 C352.4,244.5 363.15,248.45 373.3,254 C381.35,258.4 388.55,263.9 393.05,272.3 C398.4,282.35 396.2,292.9 389.3,301.2 C384.3,307.2 377.9,311.35 371.15,315 C361.3,320.3 350.8,324 340.1,326.9 C329.7,329.7 319.2,332.05 308.5,333.65 C299.7,334.95 290.95,336.2 282.1,337.1 C276.2,337.7 270.35,338.25 264.45,338.6 C257.6,339.05 250.75,339.2 243.95,339.6 C230.9,340.4 217.85,339.9 204.85,339.9 C198.45,339.9 192,339.35 185.6,338.9 C179.7,338.5 173.8,338.15 167.95,337.4 C157.65,336.1 147.35,334.85 137.1,333 C128.45,331.4 119.9,329.7 111.4,327.5 C103.2,325.35 95.15,322.75 87.35,319.5 C77.65,315.45 68.4,310.55 61.1,302.75 C56.1,297.6 52.8,291.45 53,286 L53,286 Z M224.75,316.2 C228.35,316.2 231.9,316.25 235.5,316.2 C259.85,315.95 284.05,313.9 308,309.6 C324.5,306.65 340.7,302.8 356.15,296.15 C361.05,294.05 365.85,291.75 369.85,288.05 C373.3,284.85 373.25,282.7 369.7,279.6 C366.05,276.35 361.75,274.15 357.35,272.2 C339.7,264.45 321.05,260.3 302.15,257.2 C274.4,252.7 246.45,251.2 218.3,251.5 C194.55,251.75 170.9,253.35 147.45,257.15 C130.2,259.9 113.15,263.7 96.8,270.15 C90.9,272.45 85.1,274.95 80.2,279.1 C75.75,282.9 75.8,285.2 80.3,288.9 C83.4,291.45 86.9,293.35 90.55,295.05 C107.5,302.8 125.45,306.95 143.65,310.1 C170.5,314.7 197.55,316.4 224.75,316.2 L224.75,316.2 Z" id="Shape"></path>
            </g>
        </g>
    </g>
</svg>