<?xml version="1.0" encoding="UTF-8" standalone="no"?>
<svg width="463px" height="349px" viewBox="0 0 463 349" version="1.1" xmlns="http://www.w3.org/2000/svg" xmlns:xlink="http://www.w3.org/1999/xlink" xmlns:sketch="http://www.bohemiancoding.com/sketch/ns">
    <!-- Generator: Sketch 3.3 (11970) - http://www.bohemiancoding.com/sketch -->
    <title>relog</title>
    <desc>Created with Sketch.</desc>
    <defs></defs>
    <g id="Page-1" stroke="none" stroke-width="1" fill="none" fill-rule="evenodd" sketch:type="MSPage">
        <g id="home" sketch:type="MSArtboardGroup" transform="translate(-788.000000, -1032.000000)">
            <g id="relog" sketch:type="MSLayerGroup" transform="translate(788.000000, 1032.000000)">
                <g id="code">
                    <rect id="Rectangle-13" stroke="#09F1C1" fill-opacity="0" fill="#1A1E30" sketch:type="MSShapeGroup" x="0" y="0" width="463" height="293" rx="3"></rect>
                    <text id="Slack-=-require('sla" sketch:type="MSTextLayer" font-family="Helvetica Neue" font-size="12" font-weight="260" line-spacing="21">
                        <tspan x="41.5" y="22" fill="#FF4444">Slack</tspan>
                        <tspan x="69.736" y="22" fill="#5BE8C4"> </tspan>
                        <tspan x="73.072" y="22" fill="#FFFFFF">=</tspan>
                        <tspan x="80.272" y="22" fill="#5BE8C4"> </tspan>
                        <tspan x="83.608" y="22" fill="#68D4EA">require</tspan>
                        <tspan x="118.744" y="22" fill="#34FF97">('slack-node')</tspan>
                        <tspan x="188.32" y="22" fill="#5BE8C4"></tspan>
                        <tspan x="41.5" y="43.3480835" fill="#FF4444">webhookUri</tspan>
                        <tspan x="103.516" y="43.3480835" fill="#5BE8C4"> </tspan>
                        <tspan x="106.852" y="43.3480835" fill="#FFFFFF">= </tspan>
                        <tspan x="117.388" y="43.3480835" fill="#5BE8C4">'__nope__'</tspan>
                        <tspan x="41.5" y="64.696167" fill="#FF4444">slack</tspan>
                        <tspan x="67.948" y="64.696167" fill="#5BE8C4"> </tspan>
                        <tspan x="71.284" y="64.696167" fill="#E2FFF9">= new </tspan>
                        <tspan x="106.72" y="64.696167" fill="#EFCC7B">Slack</tspan>
                        <tspan x="134.956" y="64.696167" fill="#E2FFF9"></tspan>
                        <tspan x="41.5" y="86.0442505" fill="#E2FFF9">slack.setWebhook webhookUri</tspan>
                        <tspan x="201.76" y="86.0442505" fill="#5BE8C4"></tspan>
                        <tspan x="41.5" y="107.392334" fill="#5BE8C4"></tspan>
                        <tspan x="41.5" y="128.392334" fill="#5BE8C4">slack.webhook {</tspan>
                        <tspan x="41.5" y="149.740417" fill="#5BE8C4">  </tspan>
                        <tspan x="48.172" y="149.740417" fill="#FF4444">channel:</tspan>
                        <tspan x="91.744" y="149.740417" fill="#5BE8C4"> </tspan>
                        <tspan x="95.08" y="149.740417" fill="#ECFFFB">'#general'</tspan>
                        <tspan x="146.224" y="149.740417" fill="#5BE8C4"></tspan>
                        <tspan x="41.5" y="171.088501" fill="#5BE8C4">  </tspan>
                        <tspan x="48.172" y="171.088501" fill="#FF4444">username: </tspan>
                        <tspan x="106.18" y="171.088501" fill="#ECFFFA">'infiniteloops'</tspan>
                        <tspan x="173.512" y="171.088501" fill="#5BE8C4"></tspan>
                        <tspan x="41.5" y="192.436584" fill="#5BE8C4">  </tspan>
                        <tspan x="48.172" y="192.436584" fill="#FF4444">text:</tspan>
                        <tspan x="70.612" y="192.436584" fill="#5BE8C4"> </tspan>
                        <tspan x="73.948" y="192.436584" fill="#ECFFFA">'Hi team, greetings from iloops bot'</tspan>
                        <tspan x="255.556" y="192.436584" fill="#5BE8C4"></tspan>
                        <tspan x="41.5" y="213.784668" fill="#5BE8C4">}, (</tspan>
                        <tspan x="55.06" y="213.784668" fill="#ECFFFA">err, response</tspan>
                        <tspan x="121.984" y="213.784668" fill="#5BE8C4">) -&gt;</tspan>
                        <tspan x="41.5" y="235.132751" fill="#5BE8C4">  </tspan>
                        <tspan x="48.172" y="235.132751" fill="#EAC268">console</tspan>
                        <tspan x="88.408" y="235.132751" fill="#5BE8C4">.log</tspan>
                        <tspan x="107.308" y="235.132751" fill="#F1FFFD"> response</tspan>
                        <tspan x="158.212" y="235.132751" fill="#5BE8C4"></tspan>
                        <tspan x="41.5" y="256.480835" fill="#5BE8C4">  </tspan>
                        <tspan x="48.172" y="256.480835" fill="#EA68E3">return</tspan>
                        <tspan x="78.4" y="256.480835" fill="#5BE8C4"></tspan>
                        <tspan x="41.5" y="277.828918" fill="#5BE8C4"></tspan>
                    </text>
                    <path d="M32.5,2.78710938 L32.5,290.847168" id="Line" stroke="#09F0C1" stroke-linecap="square" sketch:type="MSShapeGroup"></path>
                    <text id="1" opacity="0.634095149" sketch:type="MSTextLayer" font-family="Helvetica Neue" font-size="12" font-weight="normal" sketch:alignment="middle" line-spacing="21" fill="#C2FFCF">
                        <tspan x="14.164" y="21">1</tspan>
                        <tspan x="14.164" y="42.3359985">2</tspan>
                        <tspan x="14.164" y="63.6719971">3</tspan>
                        <tspan x="14.164" y="85.0079956">4</tspan>
                        <tspan x="14.164" y="106.343994">5</tspan>
                        <tspan x="14.164" y="127.679993">6</tspan>
                        <tspan x="14.164" y="149.015991">7</tspan>
                        <tspan x="14.164" y="170.35199">8</tspan>
                        <tspan x="14.164" y="191.687988">9</tspan>
                        <tspan x="10.828" y="213.023987">10</tspan>
                        <tspan x="10.828" y="234.359985">11</tspan>
                        <tspan x="10.828" y="255.695984">12</tspan>
                        <tspan x="10.828" y="277.031982">13</tspan>
                    </text>
                </g>
                <g transform="translate(239.000000, 131.000000)" sketch:type="MSShapeGroup">
                    <circle id="Oval-8" stroke="#5700FF" stroke-width="3" fill="#1A1E30" cx="135" cy="135" r="81"></circle>
                    <g id="Line-+-Line-Copy-+-Line-+-Line-Copy-2-+-Line-+-Line-Copy-+-Line-+-Line-Copy-2-Copy" transform="translate(33.000000, 33.000000)" stroke-linecap="square" stroke="#5700FF" stroke-width="2">
                        <g id="Line-+-Line-Copy-+-Line-+-Line-Copy-2" transform="translate(30.000000, 30.000000)">
                            <g id="Line-+-Line-Copy" transform="translate(71.000000, 0.000000)">
                                <path d="M1,0.5 L1,12.5415945" id="Line"></path>
                                <path d="M1,130.5 L1,142.541595" id="Line-Copy"></path>
                            </g>
                            <g id="Line-+-Line-Copy-2" transform="translate(72.000000, 71.500000) rotate(-270.000000) translate(-72.000000, -71.500000) translate(71.000000, 0.000000)">
                                <path d="M1,0.5 L1,12.5415945" id="Line"></path>
                                <path d="M1,130.5 L1,142.541595" id="Line-Copy"></path>
                            </g>
                        </g>
                        <g id="Line-+-Line-Copy-+-Line-+-Line-Copy-2-Copy" transform="translate(102.000000, 101.500000) rotate(-315.000000) translate(-102.000000, -101.500000) translate(30.000000, 30.000000)">
                            <g id="Line-+-Line-Copy" transform="translate(71.000000, 0.000000)">
                                <path d="M1,0.5 L1,12.5415945" id="Line"></path>
                                <path d="M1,130.5 L1,142.541595" id="Line-Copy"></path>
                            </g>
                            <g id="Line-+-Line-Copy-2" transform="translate(72.000000, 71.500000) rotate(-270.000000) translate(-72.000000, -71.500000) translate(71.000000, 0.000000)">
                                <path d="M1,0.5 L1,12.5415945" id="Line"></path>
                                <path d="M1,130.5 L1,142.541595" id="Line-Copy"></path>
                            </g>
                        </g>
                    </g>
                    <g id="Line-+-Line-Copy-+-Line-+-Line-Copy-2-+-Line-+-Line-Copy-+-Line-+-Line-Copy-2-Copy-Copy" transform="translate(135.000000, 134.500000) rotate(24.000000) translate(-135.000000, -134.500000) translate(33.000000, 33.000000)" stroke-linecap="square" stroke="#5700FF" stroke-width="2">
                        <g id="Line-+-Line-Copy-+-Line-+-Line-Copy-2" transform="translate(30.000000, 30.000000)">
                            <g id="Line-+-Line-Copy" transform="translate(71.000000, 0.000000)">
                                <path d="M1,0.5 L1,12.5415945" id="Line"></path>
                                <path d="M1,130.5 L1,142.541595" id="Line-Copy"></path>
                            </g>
                            <g id="Line-+-Line-Copy-2" transform="translate(72.000000, 71.500000) rotate(-270.000000) translate(-72.000000, -71.500000) translate(71.000000, 0.000000)">
                                <path d="M1,0.5 L1,12.5415945" id="Line"></path>
                                <path d="M1,130.5 L1,142.541595" id="Line-Copy"></path>
                            </g>
                        </g>
                        <g id="Line-+-Line-Copy-+-Line-+-Line-Copy-2-Copy" transform="translate(102.000000, 101.500000) rotate(-315.000000) translate(-102.000000, -101.500000) translate(30.000000, 30.000000)">
                            <g id="Line-+-Line-Copy" transform="translate(71.000000, 0.000000)">
                                <path d="M1,0.5 L1,12.5415945" id="Line"></path>
                                <path d="M1,130.5 L1,142.541595" id="Line-Copy"></path>
                            </g>
                            <g id="Line-+-Line-Copy-2" transform="translate(72.000000, 71.500000) rotate(-270.000000) translate(-72.000000, -71.500000) translate(71.000000, 0.000000)">
                                <path d="M1,0.5 L1,12.5415945" id="Line"></path>
                                <path d="M1,130.5 L1,142.541595" id="Line-Copy"></path>
                            </g>
                        </g>
                    </g>
                    <g id="manija1" transform="translate(113.000000, 111.792893) rotate(-45.000000) translate(-113.000000, -111.792893) translate(106.000000, 73.792893)"  fill="#00FFA5">
                        <path d="M8.66666667,64.3414114 C11.1912501,65.1650842 13,67.3875623 13,70 C13,73.3137085 10.0898509,76 6.5,76 C2.91014913,76 2.27373675e-13,73.3137085 2.27373675e-13,70 C2.27373675e-13,67.3875623 1.80874986,65.1650842 4.33333333,64.3414114 L4.33333333,2.99062252 C4.33333333,1.89123206 5.2312028,1 6.3351028,1 L6.6648972,1 C7.77044395,1 8.66666667,1.89765099 8.66666667,2.99062252 L8.66666667,64.3414114 Z" id="Oval-9-Copy"></path>
                    </g>
                    <g id="manija1-copy" transform="translate(147.627175, 113.929479) rotate(28.000000) translate(-147.627175, -113.929479) translate(142.127175, 84.929479)" fill="#00FFA5">
                        <path d="M6.78256418,48.958281 C8.72455146,49.5918755 10.1158975,51.3014741 10.1158975,53.3110415 C10.1158975,55.860048 7.87732126,57.9264261 5.11589751,57.9264261 C2.35447376,57.9264261 0.115897509,55.860048 0.115897509,53.3110415 C0.115897509,51.3014741 1.50724355,49.5918755 3.44923084,48.958281 L3.44923084,1.91026823 C3.44923084,0.984556252 4.18900555,0.234118419 5.11589751,0.234118419 C6.03637209,0.234118419 6.78256418,0.984430491 6.78256418,1.91026823 L6.78256418,48.958281 Z" id="Oval-9-Copy"></path>
                    </g>
                    <circle id="Oval-9" fill="#1A1E30" cx="135" cy="135" r="4"></circle>
                </g>
            </g>
        </g>
    </g>
</svg>
