<?xml version="1.0" encoding="UTF-8" standalone="no"?>
<svg width="191px" height="105px" viewBox="0 0 191 105" version="1.1" xmlns="http://www.w3.org/2000/svg" xmlns:xlink="http://www.w3.org/1999/xlink" xmlns:sketch="http://www.bohemiancoding.com/sketch/ns">
    <!-- Generator: Sketch 3.3 (11970) - http://www.bohemiancoding.com/sketch -->
    <title>Group</title>
    <desc>Created with Sketch.</desc>
    <defs></defs>
    <g id="Page-1" stroke="none" stroke-width="1" fill="none" fill-rule="evenodd" sketch:type="MSPage">
        <g id="digitalocean" sketch:type="MSLayerGroup" fill="#FFFFFF">
            <g id="Group" sketch:type="MSShapeGroup">
                <path d="M11.8,100.2 C45.8,78.3 84.4,94.1 103.7,104.6 C77,94 38,91.6 11.8,100.2" id="Shape"></path>
                <path d="M71.6,0 C88,0 102,9.6 108.3,23.5 L95.5,23.5 C89.9,16.5 81.2,12.1 71.4,12.1 C61.8,12.1 53.3,16.4 47.6,23.2 C47.9,23 48.2,22.7 48.5,22.5 C61.9,13 79.7,23.5 79.7,23.5 C79.7,23.5 62.8,18.6 51.3,26.6 C39.8,34.6 41.7,50.7 41.7,50.7 C41.7,50.7 41.6,50.5 41.5,50.1 C41.5,50.3 41.6,50.5 41.6,50.7 C38.9,48.7 35.5,47.4 31.9,47 C31.5,44.7 31.2,42.3 31.2,39.8 C31.3,17.8 49.3,0 71.6,0 M20.1,90.9 L20.1,87.5 C30.7,79.6 50.3,69.4 73.9,76.8 C109.7,88 132.4,103.3 160.1,96.4 C187.7,89.5 190.2,74.4 190.2,74.4 C190.2,74.4 185.3,95.7 158.1,100.4 C130.9,105.1 105.8,99.8 73.8,87.9 C52.2,79.9 31.4,86.1 20.1,90.9 M20.1,84 C22.1,82.7 24.1,81.4 25.9,80.4 C25,79.8 24.2,79.2 23.4,78.4 C22,77 20.9,75.4 20.1,73.8 L20.1,81.2 C20.2,81.3 20.2,81.3 20.3,81.4 C20.7,81.7 21,82 21.4,82.3 C20.9,82.1 20.5,81.9 20.1,81.6 L20.1,84 M20.1,49.5 L20.1,36.9 C22.7,36 25.5,35.5 28.3,35.3 C28.2,36.7 28.1,38.2 28.1,39.7 C28.1,42.2 28.3,44.6 28.7,47 C25.6,47.2 22.7,48.1 20.1,49.5 M20.1,36.9 L20.1,49.5 C14.5,52.7 10.7,58.7 10.7,65.6 C10.7,72.5 14.5,78.5 20.1,81.7 L20.1,84 C17.8,85.5 15.6,87.2 13.8,88.6 C5.7,83.4 0.4,74.5 0.4,64.3 C0.4,51.6 8.6,40.8 20.1,36.9 M20.1,73.9 C16.5,67 17.7,59.1 17.7,59.1 C17.7,59.1 11.7,73 20.1,81.3 L20.1,73.9 M20.1,87.4 C14.6,91.5 11.5,94.9 11.5,94.9 C11.5,95 14.7,93.1 20.1,90.8 L20.1,87.4" id="Shape"></path>
                <g transform="translate(97.000000, 26.000000)" id="Shape">
                    <path d="M13.1,56 C13.1,56 30.2,64.7 46.2,63.3 C62.3,61.9 67.1,56.2 67.1,56.2 C67.1,56.2 61.2,67.1 45.8,67.7 C30.4,68.3 13.1,56.4 13.1,56"></path>
                    <path d="M0,0.8 L14.4,0.8 L14.4,15.2 L0,15.2 L0,0.8 Z"></path>
                </g>
                <path d="M154,66.5 L165.1,66.5 L165.1,77.6 L154,77.6 L154,66.5 Z" id="Shape"></path>
                <path d="M114.3,13.6 L133.4,13.6 L133.4,32.7 L114.3,32.7 L114.3,13.6 Z" id="Shape"></path>
                <path d="M169.9,46.7 L189,46.7 L189,65.8 L169.9,65.8 L169.9,46.7 Z" id="Shape"></path>
                <g transform="translate(135.000000, 34.000000)" id="Shape">
                    <path d="M0.3,0.2 L11,0.2 L11,10.9 L0.3,10.9 L0.3,0.2 Z"></path>
                    <path d="M7.4,21.2 L18.1,21.2 L18.1,31.9 L7.4,31.9 L7.4,21.2 Z"></path>
                </g>
                <g transform="translate(119.000000, 34.000000)" id="Shape">
                    <path d="M0.9,22.3 L11.6,22.3 L11.6,33 L0.9,33 L0.9,22.3 Z"></path>
                    <path d="M38.4,0.6 L49.1,0.6 L49.1,11.3 L38.4,11.3 L38.4,0.6 Z"></path>
                </g>
            </g>
        </g>
    </g>
</svg>