<?xml version="1.0" encoding="UTF-8" standalone="no"?>
<svg width="196px" height="94px" viewBox="0 0 196 94" version="1.1" xmlns="http://www.w3.org/2000/svg" xmlns:xlink="http://www.w3.org/1999/xlink" xmlns:sketch="http://www.bohemiancoding.com/sketch/ns">
    <!-- Generator: Sketch 3.3 (11970) - http://www.bohemiancoding.com/sketch -->
    <title>logo</title>
    <desc>Created with Sketch.</desc>
    <defs></defs>
    <g id="Page-1" stroke="none" stroke-width="1" fill="none" fill-rule="evenodd" sketch:type="MSPage">
        <g id="home" sketch:type="MSArtboardGroup" transform="translate(-622.000000, -72.000000)">
            <g id="logo" sketch:type="MSLayerGroup" transform="translate(622.319776, 71.931002)">
                <path d="M161.609332,70.215852 C173.530006,64.265016 178.03912,53.3452014 174.955726,40.2825987 C173.58344,34.471854 166.74994,21.9452529 148.963653,22.452018 C140.024362,23.2048566 132.417282,26.8910859 126.21892,32.8151218 C118.495256,40.1973257 111.04362,48.0180764 104.485792,56.4393925 C94.0054111,69.8954692 82.4539185,81.8397777 66.7916392,89.1050358 C46.3688626,98.577646 23.2209441,93.4052305 9.92919817,76.2617064 C1.79506259,65.7731296 0.0353787404,54.1114401 5.78805122,42.0112039 C11.5322228,29.9280222 21.2110912,23.0184743 34.8052258,22.2132537 C35.3614268,22.1803627 35.941916,22.4032906 36.4944737,22.5653093 C36.6353456,22.6067276 36.7106392,22.872292 37.1041089,23.4826029 C35.3954303,24.3353328 33.6770365,25.1161896 32.0315074,26.0298287 C21.3349613,31.9672647 16.8355626,42.353514 19.4550506,54.2101131 C22.6902457,68.8453933 40.5651848,72.9579874 50.1153254,71.7800021 C65.4266395,69.8893783 75.2925274,58.242307 84.9143184,47.1020009 C93.1067458,37.6147725 100.974925,27.752343 109.959149,19.069117 C119.672021,9.68177979 131.385031,3.33746989 145.099392,1.24584544 C166.114802,-1.95798233 189.614901,14.4765578 192.624215,35.364784 C195.956563,58.4871623 173.457141,76.5869619 155.751005,73.0249876" id="Fill-2" fill="#FFFFFF" sketch:type="MSShapeGroup"></path>
                <path d="M95.4432756,28.488127 C91.0689615,34.0625437 86.8780236,39.4018506 83.4898124,43.7203181 C73.1296586,36.7279335 63.8697625,29.1410744 53.4780339,23.7481674 C32.8548792,13.046408 12.0738508,21.0571957 2.29540058,42.2901683 C1.89585884,43.1575164 1.31415521,43.9395915 0.541788794,45.2186862 C-0.593686985,30.550515 10.8837265,12.881953 25.7833546,5.84449557 C37.6469513,0.242060618 49.7449296,-0.669142111 62.1210084,4.27425451 C75.1480123,9.47834282 85.7486199,17.9398591 95.4432756,28.488127" id="Fill-4" fill="#FFFFFF" sketch:type="MSShapeGroup"></path>
                <path d="M100.177056,67.1131336 C104.514938,61.2889889 108.461779,55.9898821 112.400119,50.7005208 C119.296768,56.4832472 125.448982,62.3098283 132.26548,67.208152 C144.120576,75.7293594 157.180369,79.7213531 171.613663,74.4490465 C183.149368,70.2353429 190.439487,61.6873355 194.58792,49.8855547 C196.133867,56.9278849 192.05587,68.5639925 185.532045,76.4456524 C172.491683,92.2028814 152.886206,97.8406438 133.698487,91.0858054 C120.429815,86.4165005 109.744198,77.9830025 100.177056,67.1131336" id="Fill-5" fill="#FFFFFF" sketch:type="MSShapeGroup"></path>
                <path d="M8.42089794,54.3794404 C11.4478008,46.8275998 19.0041369,43.5348794 19.1988099,42.8257126 C19.9198674,40.1990002 21.3349613,31.9672647 32.0315074,26.0298287 C33.6770365,25.1161896 37.320123,23.3918481 38.9330148,22.5653093 C38.772289,22.3160075 38.1469207,22.2061452 37.4254157,22.1656451 C36.3806182,22.1069976 35.134228,22.1937981 34.8052258,22.2132537 C21.2110912,23.0184743 11.8078946,29.6429673 5.78805122,42.0112039 C-0.231792156,54.3794404 2.76628907,66.504195 7.30136118,72.4809174 C7.3013611,70.6536392 5.39399507,61.9312811 8.42089794,54.3794404 Z" id="Path-Copy" fill="#E8EAE9" sketch:type="MSShapeGroup"></path>
                <path d="M89.9573185,22.8398578 C89.9573185,22.8398578 89.7335052,23.1368107 89.6215985,23.2852871 C85.5779371,28.6503689 77.3957382,39.4947372 77.3957382,39.4947372 L83.7144788,43.8725913 L95.5550016,28.4168632 L89.9573185,22.8398578 Z" id="Path-11" fill="#E8EAE9" sketch:type="MSShapeGroup"></path>
                <path d="M112.404976,50.7248845 L100.146999,67.1513541 C100.146999,67.1513541 102.144783,69.3037601 103.258932,70.48233 C104.232055,71.5117212 106.541641,73.7942718 106.541641,73.7942718 C106.541641,73.7942718 114.460778,62.614447 118.391883,57.0245346 C118.565745,56.7773083 118.913469,56.2828557 118.913469,56.2828557 L112.404976,50.7248845 Z" id="Path-12" fill="#E8EAE9" sketch:type="MSShapeGroup"></path>
                <path d="M155.744326,73.0329058 C155.744326,73.0329058 161.670195,74.5638812 169.501344,71.890857 C174.021486,70.3479864 179.1517,67.3428611 184.207121,61.9931001 C200.222187,45.3191865 189.975581,25.3904336 188.191913,22.858892 C187.890889,30.2191369 186.904421,39.4891416 184.510724,45.0146401 C182.758855,49.058576 178.804484,50.9657046 176.809848,51.6976911 C176.079081,51.9658664 175.611357,52.076309 175.611357,52.076309 C175.611357,52.076309 174.45532,59.2521828 170.848583,63.0590123 C167.241845,66.8658419 155.744326,73.0329058 155.744326,73.0329058 Z" id="Path-13" fill="#E7E9E8" sketch:type="MSShapeGroup"></path>
            </g>
        </g>
    </g>
</svg>