<?xml version="1.0" encoding="UTF-8" standalone="no"?>
<svg width="886px" height="525px" viewBox="0 0 886 525" version="1.1" xmlns="http://www.w3.org/2000/svg" xmlns:xlink="http://www.w3.org/1999/xlink" xmlns:sketch="http://www.bohemiancoding.com/sketch/ns">
    <!-- Generator: Sketch 3.3 (11970) - http://www.bohemiancoding.com/sketch -->
    <title>angel-angel</title>
    <desc>Created with Sketch.</desc>
    <defs></defs>
    <g id="Page-1" stroke="none" stroke-width="1" fill="none" fill-rule="evenodd" sketch:type="MSPage">
        <g id="angel-angel" sketch:type="MSLayerGroup" fill="#505FE3">
            <path d="M5.68434189e-14,525 C2.6,512.3 7.1,500 11.3,487.8 C23,453 37,419.1 53.5,386.3 C68.8,355.7 86.2,326.3 106.1,298.5 C109.6,293.6 110.1,289.4 108.4,283.8 C99.6,255.7 90.9,227.5 84.4,198.7 C81.8,187.3 79.4,175.9 79.7,164.1 C80,153.5 83.7,148.5 93.9,145.7 C103.5,143.1 113.4,143.5 123.2,144.1 C133,144.7 142.8,145.7 152.5,146.5 C153.6,146.6 155.1,147.2 155.6,145.8 C156.1,144.5 154.8,143.8 154.1,142.9 C145.2,131.3 138.9,118.6 138.7,103.6 C138.4,77.9 152.1,61.5 177.4,56.8 C193,53.9 208.6,54.3 224.2,56.4 C228.1,56.9 230.3,55.9 232.5,52.8 C242.6,38.5 253.3,24.7 266.9,13.4 C272.1,9.1 277.6,5.4 283.9,3 C295.5,-1.3 306.1,0.2 315.5,8.7 C320,12.9 324.6,17 329.4,20.9 C338.9,28.8 349.3,31 361.1,26.5 C371.7,22.4 382.5,22.3 393.4,25.8 C411.9,31.8 421.3,48.1 416.5,66.9 C413,80.6 409.8,94.4 407.5,108.4 C406.6,113.9 407.8,117.2 412.8,120.2 C430.3,130.9 447.4,142.1 462.2,156.6 C465.2,159.5 467.7,162.8 470,166.3 C479.2,180.6 476.4,195.3 462.6,205.3 C452.8,212.3 441.7,216.3 430.2,219.2 C428,219.8 425.8,220.3 422,221.2 C429.8,224.9 436.3,227.9 442.8,231 C448.5,233.7 454.2,236.6 459.9,239.4 C462,240.4 463.5,241.6 460.9,243.7 C443.2,257.4 433.5,276.4 425,296.4 C420.6,306.8 416.8,317.5 413.2,328.3 C412.1,331.6 412,334.8 412.8,338.1 C420.5,372.6 428.3,407 435.6,441.5 C441.4,469 445.5,496.9 447,525 L5.68434189e-14,525 L5.68434189e-14,525 Z M377.8,147.9 C383.5,147.9 389.1,147.8 394.8,147.9 C398.5,148 400.4,146.4 400.6,142.8 C400.9,139.3 401.4,135.9 401.7,132.4 C402.1,126.5 401.7,126 395.9,126.2 C374.9,126.9 354,125.8 333.3,121.5 C294,113.3 256.9,100.4 226.4,73 C224.4,71.2 223.3,71.8 222.2,73.9 C220.2,77.7 218.4,81.7 215.9,85.3 C213,89.5 214,92.5 217.5,95.6 C227.8,105 238.9,113 251.4,119.3 C291.1,139.2 333.7,147.1 377.8,147.9 L377.8,147.9 Z M127.6,150.5 C119.5,149.8 111.4,150.2 103.5,152.4 C91.5,155.8 87.4,163.6 91.7,175.3 C94.9,184 100.1,191.5 106.1,198.5 C125.5,220.9 147.6,240.3 171.8,257.3 C219.1,290.6 271.1,312.6 328.2,322.5 C335.4,323.8 335.7,324 334.7,331.6 C333.7,339.2 334.2,346.8 334.2,354.4 C335.4,348.3 336.7,342.3 338.6,336.4 C340.5,330.5 342.4,324.6 345.6,319.3 C348,315.3 346.2,314.5 342.6,314.1 C338.8,313.8 335,313.4 331.2,312.8 C248.5,299.3 176.4,265 117.7,204.4 C109.5,195.9 101.4,187.2 96.4,176.3 C90.7,164.1 94.6,156.1 107.7,152.5 C114.3,150.9 121,150.6 127.6,150.5 L127.6,150.5 Z M458.8,176.3 C453.9,183.6 447.2,187.3 440.2,190.4 C432.2,193.9 423.9,196.3 415.4,198.1 C375.9,206.7 336.4,205.2 296.8,198.7 C280.3,196 263.9,192.2 247.8,187.7 C248.3,188.2 248.8,188.5 249.4,188.7 C300.7,205.2 353.2,211.7 407,208.5 C418.1,207.8 429.2,206 439.8,202.4 C446.1,200.2 452.3,197.8 456.9,192.5 C460.8,188 462,183 458.8,176.3 Z M264.084822,238.49926 C258.21953,236.81277 252.690838,234.604118 249.024191,228.907721 C247.909057,227.128133 247.288071,225.181158 248.79509,223.271327 C250.135345,221.534597 251.756914,222.442964 253.384626,222.999413 C269.337433,228.382228 285.287168,233.941003 301.070139,239.672879 C288.271401,241.209599 276.145862,241.701997 264.084822,238.49926 Z M388.436182,242.956918 C376.432063,248.263038 364.772537,252.351951 352.075857,252.823875 C345.863053,252.927774 339.822547,252.423068 334.556812,247.968213 C332.941314,246.567456 331.757119,244.856625 332.655925,242.548503 C333.443888,240.458564 335.293137,240.860298 337.04361,240.917556 C354.178489,241.409791 371.362757,242.074263 388.436182,242.956918 Z" id="Shape" sketch:type="MSShapeGroup"></path>
            <path d="M877,525 C861.4,473.1 839,424.4 807.8,380 C804.9,375.9 804.4,372.4 805.8,367.6 C812.8,345 820,322.5 824.1,299.1 C824.8,295 824.9,290.8 824.7,286.7 C824.5,280.6 821.3,277.4 813.9,276.3 C818.2,279.4 821.7,282.4 821.2,287.7 C820.8,292.4 818.6,296.2 815.9,299.9 C807,312.2 795.4,321.6 783.6,331 C756.5,352.6 727,369.7 693.8,379.9 C679.4,384.3 664.8,387.5 649.9,389.2 C647,389.5 644,389.9 646.1,393.9 C654.8,410.4 653.8,428.2 652.8,445.8 C651.2,472.4 647.4,498.7 642.9,525 L570.9,525 C571.2,511 573.7,497.2 576.2,483.4 C580.8,457.5 587.6,432 592.9,406.3 C593.2,404.7 593.8,403.1 593.3,401.4 C587.6,384.3 581.8,367.3 569.8,353.2 C565.9,348.7 561,345.5 556.2,342.3 C552.5,339.8 553.1,338.3 556.7,336.6 C562.1,334 567.3,331.1 573.3,328.1 C569.3,325.5 565.4,323.7 562.1,321 C549.1,310.4 547.2,296.9 557.2,283.2 C564.5,273.2 574.8,266.4 584.8,259.6 C597.4,251 597.6,251.2 594.1,236.3 C593.1,232.2 592.1,228.2 591,224.2 C586.1,204.5 599.5,186.6 619.9,185.7 C625.9,185.4 631.9,185.5 637.6,187.7 C643.8,190.1 649,188.3 653.7,184.2 C656.1,182.1 658.3,179.8 660.7,177.8 C671.4,168.6 682.4,167.4 694.9,174.2 C707.3,180.9 715.9,191.5 724.1,202.5 C726.7,206 729,207.8 733.8,207.2 C742.4,206.2 751.1,206.5 759.7,207.9 C785.3,212.2 798.8,234.6 791,259.7 C788.5,267.5 788.5,267.5 796.5,267.1 C802.8,266.8 809.1,266.8 815.4,267.9 C827,269.9 833,276.7 833,288.5 C832.9,303 829,316.8 825.2,330.6 C821.8,342.8 818.2,354.9 814.5,367 C813.2,371 813.7,374.2 816.2,377.7 C846.7,421.6 868.4,469.7 884.3,520.6 C884.7,522 885.3,523.4 885,525 L877,525 L877,525 Z M668.3,197.9 C664.4,199.2 660.5,199.9 656.4,199.6 C646.3,198.9 637,194.9 627.1,193.7 C609.8,191.5 593.4,204.5 599.5,223.9 C602.3,233 604,242.3 605.3,251.7 C605.7,254.7 604.9,256.6 602.1,258.2 C592.8,263.5 584.3,269.9 575.8,276.3 C570.3,280.4 565.4,285.1 562,291.2 C557.3,299.7 558.9,307.7 566.5,313.8 C573.9,319.7 582.5,322.6 591.5,324.5 C613.6,329.3 635.9,328.8 658,325.5 C692.2,320.4 725,310.8 754.2,291.4 C768,282.2 779.8,271 784.1,254.1 C788.7,235.9 778.7,220.1 760.5,216.1 C752.9,214.4 745.1,213.8 737.7,215.1 C727.2,216.9 721,213.2 715.4,204.5 C709.2,194.9 701.1,186.5 690.7,180.9 C681.5,176 674.2,176.9 666.4,183.8 C663.3,186.6 660.2,189.3 656.9,191.9 C654.7,193.7 655,194.6 657.5,195.5 C660.9,197.2 664.7,196.6 668.3,197.9 L668.3,197.9 Z M647.1,346.3 C656,348.7 664.8,350.9 674,348.6 C675.9,348.1 677.8,347.5 679.3,346 C680.3,345 681.2,343.9 680.5,342.5 C679.8,341.1 678.5,341.7 677.4,341.9 C667.3,343.4 657.2,344.9 647.1,346.3 L647.1,346.3 Z M706.1,335 C713.9,336 721.3,336.4 728.7,334.7 C732.3,333.8 735.7,332.6 738,329.4 C738.7,328.4 739.1,327.3 738.2,326.2 C737.4,325.2 736.4,325.7 735.4,326 C725.6,328.9 715.8,331.9 706.1,335 L706.1,335 Z" id="Shape" sketch:type="MSShapeGroup"></path>
            <path d="M667.8,471.2 C663.7,471.3 660.3,468.1 660.3,464.2 C660.3,460.2 663.5,456.9 667.5,456.8 C671.6,456.8 674.9,459.9 675,463.9 C675.1,468 672,471.1 667.8,471.2 L667.8,471.2 Z" id="Shape" sketch:type="MSShapeGroup"></path>
            <path d="M620.4,278.1 C605.1,278.3 609.3,277.9 607.1,264.6 C606.6,261.2 608.9,260.8 611.5,261 C641.1,263 669.1,256.8 696,244.9 C706.6,240.2 716.5,234.4 724.9,226.5 C727.6,223.9 729.1,224.2 730.9,227.4 C737.6,239.1 737.6,239.6 725.9,248.4 C712,258.9 696.2,265.4 679.6,270.1 C660.7,275.4 641.4,277.6 621.9,278.1 L620.4,278.1 Z" id="Shape" sketch:type="MSShapeGroup"></path>
            <path d="M721.9,300.2 C720.2,302.5 718,302.8 716,303.5 C693,311.9 669.2,316.3 644.8,318.2 C625.8,319.7 606.9,320.1 588.1,316.1 C582.9,315 577.7,313.5 573.3,310.4 C568.6,307.1 566.6,302.5 568,297.9 C568.4,296.5 569,294.3 570.9,296.3 C581.1,307.3 595,309.4 608.6,311.5 C644.5,317 679.6,312.3 714.2,302 C716.5,301.3 718.8,300.1 721.9,300.2 L721.9,300.2 Z" id="Shape" sketch:type="MSShapeGroup"></path>
        </g>
    </g>
</svg>